<?xml version="1.0" encoding="UTF-8"?>
<svg xmlns="http://www.w3.org/2000/svg" xmlns:xlink="http://www.w3.org/1999/xlink" width="60px" height="60px" viewBox="0 0 60 60" version="1.1">
<defs>
<filter id="alpha" filterUnits="objectBoundingBox" x="0%" y="0%" width="100%" height="100%">
  <feColorMatrix type="matrix" in="SourceGraphic" values="0 0 0 0 1 0 0 0 0 1 0 0 0 0 1 0 0 0 1 0"/>
</filter>
<mask id="mask0">
  <g filter="url(#alpha)">
<rect x="0" y="0" width="60" height="60" style="fill:rgb(0%,0%,0%);fill-opacity:0.913725;stroke:none;"/>
  </g>
</mask>
<clipPath id="clip1">
  <rect x="0" y="0" width="60" height="60"/>
</clipPath>
<g id="surface5" clip-path="url(#clip1)">
<path style=" stroke:none;fill-rule:evenodd;fill:rgb(5.882353%,38.82353%,74.117649%);fill-opacity:1;" d="M 24.140625 -0.234375 C 27.890625 -0.234375 31.640625 -0.234375 35.390625 -0.234375 C 48.359375 3.046875 56.484375 11.171875 59.765625 24.140625 C 59.765625 27.890625 59.765625 31.640625 59.765625 35.390625 C 56.429688 48.570312 48.148438 56.695312 34.921875 59.765625 C 31.484375 59.765625 28.046875 59.765625 24.609375 59.765625 C 20.976562 58.945312 17.460938 57.695312 14.0625 56.015625 C 10.519531 56.9375 7.003906 57.953125 3.515625 59.0625 C 2.734375 59.375 1.953125 59.375 1.171875 59.0625 C 0.910156 58.722656 0.753906 58.332031 0.703125 57.890625 C 1.75 53.894531 2.84375 49.910156 3.984375 45.9375 C 1.960938 42.4375 0.554688 38.765625 -0.234375 34.921875 C -0.234375 31.328125 -0.234375 27.734375 -0.234375 24.140625 C 3.046875 11.171875 11.171875 3.046875 24.140625 -0.234375 Z M 4.453125 55.546875 C 5.160156 52.253906 5.941406 48.972656 6.796875 45.703125 C 4.152344 40.652344 2.589844 35.261719 2.109375 29.53125 C 4.09375 13.09375 13.3125 3.953125 29.765625 2.109375 C 46.328125 3.984375 55.546875 13.203125 57.421875 29.765625 C 55.546875 46.328125 46.328125 55.546875 29.765625 57.421875 C 24.308594 57.035156 19.230469 55.472656 14.53125 52.734375 C 11.203125 53.816406 7.84375 54.753906 4.453125 55.546875 Z M 16.640625 13.828125 C 17.683594 13.675781 18.542969 13.988281 19.21875 14.765625 C 20.699219 16.929688 21.480469 19.273438 21.5625 21.796875 C 18.488281 24.359375 18.332031 27.171875 21.09375 30.234375 C 24.367188 34.015625 28.195312 37.0625 32.578125 39.375 C 34.046875 39.746094 35.453125 39.589844 36.796875 38.90625 C 38.289062 37.554688 39.617188 36.070312 40.78125 34.453125 C 42.945312 35.882812 45.054688 37.367188 47.109375 38.90625 C 45.902344 43.472656 42.933594 45.582031 38.203125 45.234375 C 31.183594 44.855469 25.324219 42.042969 20.625 36.796875 C 16.820312 32.625 14.242188 27.78125 12.890625 22.265625 C 13.386719 19.09375 14.636719 16.28125 16.640625 13.828125 Z M 16.640625 13.828125 "/>
</g>
<mask id="mask1">
  <g filter="url(#alpha)">
<rect x="0" y="0" width="60" height="60" style="fill:rgb(0%,0%,0%);fill-opacity:0.905882;stroke:none;"/>
  </g>
</mask>
<clipPath id="clip2">
  <rect x="0" y="0" width="60" height="60"/>
</clipPath>
<g id="surface8" clip-path="url(#clip2)">
<path style=" stroke:none;fill-rule:evenodd;fill:rgb(5.882353%,38.82353%,73.725492%);fill-opacity:1;" d="M 15.234375 11.015625 C 18.257812 10.394531 20.523438 11.332031 22.03125 13.828125 C 23.96875 16.515625 24.75 19.484375 24.375 22.734375 C 23.039062 23.886719 22.414062 25.292969 22.5 26.953125 C 25.566406 31.269531 29.472656 34.550781 34.21875 36.796875 C 36.097656 35.621094 37.582031 34.058594 38.671875 32.109375 C 39.734375 31.621094 40.828125 31.542969 41.953125 31.875 C 44.6875 33.671875 47.421875 35.46875 50.15625 37.265625 C 49.957031 42.738281 47.222656 46.253906 41.953125 47.8125 C 34.816406 48.765625 28.410156 47.046875 22.734375 42.65625 C 16.183594 37.363281 11.964844 30.644531 10.078125 22.5 C 10.460938 18.0625 12.179688 14.234375 15.234375 11.015625 Z M 16.640625 13.828125 C 14.636719 16.28125 13.386719 19.09375 12.890625 22.265625 C 14.242188 27.78125 16.820312 32.625 20.625 36.796875 C 25.324219 42.042969 31.183594 44.855469 38.203125 45.234375 C 42.933594 45.582031 45.902344 43.472656 47.109375 38.90625 C 45.054688 37.367188 42.945312 35.882812 40.78125 34.453125 C 39.617188 36.070312 38.289062 37.554688 36.796875 38.90625 C 35.453125 39.589844 34.046875 39.746094 32.578125 39.375 C 28.195312 37.0625 24.367188 34.015625 21.09375 30.234375 C 18.332031 27.171875 18.488281 24.359375 21.5625 21.796875 C 21.480469 19.273438 20.699219 16.929688 19.21875 14.765625 C 18.542969 13.988281 17.683594 13.675781 16.640625 13.828125 Z M 16.640625 13.828125 "/>
</g>
</defs>
<g id="surface1">
<use xlink:href="#surface5" mask="url(#mask0)"/>
<use xlink:href="#surface8" mask="url(#mask1)"/>
</g>
</svg>
