<?xml version="1.0" standalone="no"?>
<!DOCTYPE svg PUBLIC "-//W3C//DTD SVG 20010904//EN"
 "http://www.w3.org/TR/2001/REC-SVG-20010904/DTD/svg10.dtd">
<svg version="1.0" xmlns="http://www.w3.org/2000/svg"
 width="612.000000pt" height="612.000000pt" viewBox="0 0 612.000000 612.000000"
 preserveAspectRatio="xMidYMid meet">
<metadata>
Created by potrace 1.16, written by Peter Selinger 2001-2019
</metadata>
<g transform="translate(0.000000,612.000000) scale(0.100000,-0.100000)"
fill="#000000" stroke="none">
<path d="M2205 4945 c-202 -44 -387 -198 -529 -440 -82 -141 -149 -339 -188
-555 -8 -48 -13 -156 -13 -300 0 -292 29 -456 121 -687 l44 -111 0 -465 0
-466 -32 -22 c-18 -13 -63 -49 -100 -81 -97 -82 -119 -92 -213 -92 -95 -1
-112 7 -222 100 -91 77 -162 113 -238 121 l-55 6 0 -56 0 -55 50 -11 c69 -15
94 -29 172 -98 86 -76 148 -109 229 -122 129 -21 234 14 354 120 97 85 134
102 220 103 87 0 115 -13 225 -104 101 -84 143 -106 231 -119 128 -21 222 12
354 125 97 82 131 97 215 97 84 1 134 -22 225 -102 39 -34 93 -73 121 -87 53
-26 156 -47 164 -34 3 4 3 31 2 58 l-4 50 -43 6 c-50 8 -107 43 -190 116 -33
30 -85 65 -115 79 -48 23 -68 26 -160 26 -94 0 -111 -3 -160 -27 -30 -15 -86
-55 -125 -89 -96 -83 -135 -102 -215 -103 l-65 -1 -3 308 -2 307 423 0 c396 0
427 1 497 21 116 31 209 89 325 200 l50 48 610 3 c598 3 611 4 667 25 202 76
368 291 447 576 44 159 55 246 55 432 0 274 -42 467 -147 668 -87 167 -204
286 -335 339 l-57 23 -622 3 -623 3 -22 30 c-38 52 -168 150 -246 186 -127 59
-162 63 -612 62 -295 0 -421 -4 -465 -14z m266 -125 c89 -28 158 -70 240 -147
306 -289 443 -889 323 -1420 -86 -384 -282 -667 -531 -766 -57 -22 -167 -39
-209 -31 -33 6 -34 8 -34 50 0 50 25 119 39 110 5 -4 42 -2 83 4 285 39 516
360 577 804 18 129 14 368 -9 501 -73 426 -309 731 -583 752 -144 11 -259 -37
-378 -156 -114 -114 -194 -264 -249 -463 -64 -234 -66 -563 -6 -795 l15 -56
-29 -31 c-16 -17 -36 -40 -43 -50 -13 -18 -17 -9 -40 90 -41 168 -50 254 -50
444 1 190 20 328 67 491 96 331 299 589 523 665 89 31 205 32 294 4z m674 4
c175 -45 347 -210 464 -443 50 -98 109 -285 131 -413 41 -244 36 -481 -17
-718 -71 -320 -224 -575 -425 -710 -104 -69 -163 -82 -395 -88 -112 -2 -203 0
-202 4 0 5 27 31 60 57 163 132 319 413 384 695 64 272 61 639 -6 904 -72 287
-218 544 -386 682 l-55 46 194 0 c143 0 209 -4 253 -16z m-680 -293 c64 -30
165 -113 165 -137 0 -8 -13 -38 -29 -67 -106 -186 -173 -508 -157 -752 7 -100
30 -268 42 -299 6 -15 -22 -16 -313 -16 l-320 0 -11 53 c-28 130 -34 192 -35
332 0 421 153 768 392 890 78 39 174 38 266 -4z m2300 24 c214 -56 385 -324
441 -690 22 -138 14 -392 -16 -530 -29 -137 -86 -277 -154 -379 -67 -100 -118
-147 -206 -190 l-65 -31 -561 -3 -561 -3 64 127 c131 263 179 500 171 851 -8
296 -57 509 -173 739 -30 60 -55 112 -55 116 0 4 237 8 528 8 447 0 536 -2
587 -15z m-2020 -347 c112 -245 143 -586 79 -875 l-16 -73 -99 0 -98 0 -10 38
c-61 219 -48 582 28 805 23 66 72 177 78 177 2 0 19 -33 38 -72z m17 -1083
c-7 -13 -58 -16 -373 -18 -356 -2 -365 -2 -414 -25 -61 -28 -98 -62 -133 -122
l-27 -45 -5 -480 -5 -480 -25 0 -25 0 0 535 c0 522 1 536 21 570 11 19 35 45
54 57 l33 23 454 0 c403 0 453 -2 445 -15z m-72 -142 c-1 -29 -22 -32 -265
-35 l-250 -3 -54 -30 c-56 -31 -106 -88 -128 -148 -8 -22 -12 -154 -12 -439
-1 -430 -1 -427 -44 -395 -17 11 -18 46 -15 477 3 464 3 465 26 502 13 20 41
45 65 57 40 20 58 21 360 21 174 0 317 -3 317 -7z m-139 -167 c-8 -10 -41 -15
-109 -18 -111 -4 -172 -27 -224 -87 -67 -77 -67 -75 -68 -519 -1 -221 -4 -402
-8 -402 -3 0 -16 10 -29 22 l-23 21 0 427 c0 435 3 471 39 514 44 51 65 56
255 56 152 0 177 -2 167 -14z"/>
<path d="M780 1451 l0 -61 33 0 c48 0 122 -41 202 -112 87 -76 153 -107 243
-115 126 -10 209 21 324 123 91 81 152 107 236 102 84 -5 123 -24 209 -100 37
-34 97 -75 133 -92 59 -28 74 -31 160 -31 118 0 169 22 285 119 104 88 126 98
212 104 63 4 79 1 125 -21 29 -15 85 -54 123 -88 85 -74 154 -109 226 -112
l54 -2 0 55 0 55 -46 6 c-62 9 -92 26 -174 99 -38 35 -99 77 -135 94 -59 28
-74 31 -160 31 -119 0 -174 -23 -284 -120 -97 -84 -141 -105 -226 -105 -85 0
-131 22 -228 106 -110 95 -163 117 -282 118 -87 1 -101 -2 -160 -30 -36 -17
-96 -59 -135 -93 -95 -83 -134 -101 -221 -101 -88 1 -130 19 -219 100 -80 71
-166 116 -242 126 l-53 7 0 -62z"/>
</g>
</svg>
